<mxfile host="65bd71144e">
    <diagram id="HBFmvT86Vw7cffsOXpXx" name="Page-1">
        <mxGraphModel dx="4853" dy="3460" grid="1" gridSize="10" guides="1" tooltips="1" connect="1" arrows="1" fold="1" page="1" pageScale="1" pageWidth="850" pageHeight="1100" math="0" shadow="0">
            <root>
                <mxCell id="0"/>
                <mxCell id="1" parent="0"/>
                <mxCell id="2" value="" style="rounded=0;whiteSpace=wrap;html=1;fillColor=#FFFFFF;strokeColor=#36393d;" parent="1" vertex="1">
                    <mxGeometry x="-1068.89" y="-630" width="1640" height="1780" as="geometry"/>
                </mxCell>
                <mxCell id="3" value="" style="rounded=0;whiteSpace=wrap;html=1;fillColor=#FFFFFF;strokeColor=#000000;" parent="1" vertex="1">
                    <mxGeometry x="-832" y="-489" width="320" height="560" as="geometry"/>
                </mxCell>
                <mxCell id="42" style="edgeStyle=none;html=1;fontFamily=Courier New;fontSize=14;endArrow=block;endFill=1;strokeColor=#000000;strokeWidth=2;" edge="1" parent="1" source="4" target="5">
                    <mxGeometry relative="1" as="geometry"/>
                </mxCell>
                <mxCell id="4" value="&lt;font color=&quot;#000000&quot; style=&quot;font-size: 14px&quot;&gt;Food_Inspections.csv&lt;/font&gt;" style="rounded=1;whiteSpace=wrap;html=1;strokeColor=#36393d;arcSize=38;fillColor=#FFFFCC;strokeWidth=1;" parent="1" vertex="1">
                    <mxGeometry x="-754.5" y="-469" width="160" height="40" as="geometry"/>
                </mxCell>
                <mxCell id="43" style="edgeStyle=none;html=1;fontFamily=Courier New;fontSize=14;endArrow=block;endFill=1;strokeColor=#000000;strokeWidth=2;" edge="1" parent="1" source="5" target="10">
                    <mxGeometry relative="1" as="geometry"/>
                </mxCell>
                <mxCell id="5" value="&lt;font color=&quot;#000000&quot; face=&quot;Courier New&quot; style=&quot;font-size: 14px&quot;&gt;TypeCleaning&lt;/font&gt;" style="rounded=0;whiteSpace=wrap;html=1;strokeColor=#36393d;fillColor=#ccffcc;strokeWidth=1;" parent="1" vertex="1">
                    <mxGeometry x="-740.12" y="-389" width="130" height="40" as="geometry"/>
                </mxCell>
                <mxCell id="6" value="&lt;font color=&quot;#000000&quot; face=&quot;Courier New&quot; style=&quot;font-size: 20px&quot;&gt;openrefine_cleaning&lt;/font&gt;" style="text;html=1;strokeColor=none;fillColor=none;align=center;verticalAlign=middle;whiteSpace=wrap;rounded=0;" parent="1" vertex="1">
                    <mxGeometry x="-751.99" y="-520" width="150" height="30" as="geometry"/>
                </mxCell>
                <mxCell id="44" style="edgeStyle=none;html=1;fontFamily=Courier New;fontSize=14;endArrow=block;endFill=1;strokeColor=#000000;strokeWidth=2;" edge="1" parent="1" source="10" target="13">
                    <mxGeometry relative="1" as="geometry"/>
                </mxCell>
                <mxCell id="10" value="&lt;font color=&quot;#000000&quot; style=&quot;font-size: 14px&quot;&gt;Clean_types_Inspections&lt;/font&gt;" style="rounded=1;whiteSpace=wrap;html=1;strokeColor=#36393d;arcSize=38;fillColor=#FFFFCC;strokeWidth=1;" vertex="1" parent="1">
                    <mxGeometry x="-768.87" y="-309" width="187.5" height="40" as="geometry"/>
                </mxCell>
                <mxCell id="47" style="edgeStyle=none;html=1;fontFamily=Courier New;fontSize=14;endArrow=block;endFill=1;strokeColor=#000000;strokeWidth=2;" edge="1" parent="1" source="11" target="17">
                    <mxGeometry relative="1" as="geometry"/>
                </mxCell>
                <mxCell id="11" value="&lt;font color=&quot;#000000&quot; face=&quot;Courier New&quot; style=&quot;font-size: 14px&quot;&gt;NameClustering&lt;/font&gt;" style="rounded=0;whiteSpace=wrap;html=1;strokeColor=#36393d;fillColor=#ccffcc;strokeWidth=1;" vertex="1" parent="1">
                    <mxGeometry x="-745.13" y="-69" width="140" height="40" as="geometry"/>
                </mxCell>
                <mxCell id="45" style="edgeStyle=none;html=1;entryX=0.5;entryY=0;entryDx=0;entryDy=0;fontFamily=Courier New;fontSize=14;endArrow=block;endFill=1;strokeColor=#000000;strokeWidth=2;" edge="1" parent="1" source="13" target="14">
                    <mxGeometry relative="1" as="geometry"/>
                </mxCell>
                <mxCell id="13" value="&lt;font color=&quot;#000000&quot; face=&quot;Courier New&quot; style=&quot;font-size: 14px&quot;&gt;NameCapitalization&lt;/font&gt;" style="rounded=0;whiteSpace=wrap;html=1;strokeColor=#36393d;fillColor=#ccffcc;strokeWidth=1;" vertex="1" parent="1">
                    <mxGeometry x="-767.62" y="-229" width="185" height="40" as="geometry"/>
                </mxCell>
                <mxCell id="46" style="edgeStyle=none;html=1;fontFamily=Courier New;fontSize=14;endArrow=block;endFill=1;strokeColor=#000000;strokeWidth=2;" edge="1" parent="1" source="14" target="11">
                    <mxGeometry relative="1" as="geometry"/>
                </mxCell>
                <mxCell id="14" value="&lt;font color=&quot;#000000&quot;&gt;&lt;span style=&quot;font-size: 14px&quot;&gt;Capital_Name_Inspections&lt;/span&gt;&lt;/font&gt;" style="rounded=1;whiteSpace=wrap;html=1;strokeColor=#36393d;arcSize=38;fillColor=#FFFFCC;strokeWidth=1;" vertex="1" parent="1">
                    <mxGeometry x="-785.75" y="-147" width="221.25" height="40" as="geometry"/>
                </mxCell>
                <mxCell id="15" value="" style="rounded=0;whiteSpace=wrap;html=1;fillColor=#FFFFFF;strokeColor=#000000;" vertex="1" parent="1">
                    <mxGeometry x="-180" y="-489" width="670" height="795" as="geometry"/>
                </mxCell>
                <mxCell id="16" value="&lt;font color=&quot;#000000&quot; face=&quot;Courier New&quot; style=&quot;font-size: 20px&quot;&gt;python_data_cleaning&lt;/font&gt;" style="text;html=1;strokeColor=none;fillColor=none;align=center;verticalAlign=middle;whiteSpace=wrap;rounded=0;" vertex="1" parent="1">
                    <mxGeometry x="75" y="-520" width="150" height="30" as="geometry"/>
                </mxCell>
                <mxCell id="17" value="&lt;font color=&quot;#000000&quot;&gt;&lt;span style=&quot;font-size: 14px&quot;&gt;Open_Refine_Inspections.csv&lt;/span&gt;&lt;/font&gt;" style="rounded=1;whiteSpace=wrap;html=1;strokeColor=#36393d;arcSize=38;fillColor=#FFFFCC;strokeWidth=1;" vertex="1" parent="1">
                    <mxGeometry x="-786.38" y="13" width="223.75" height="40" as="geometry"/>
                </mxCell>
                <mxCell id="33" style="edgeStyle=none;html=1;entryX=0.5;entryY=0;entryDx=0;entryDy=0;fontFamily=Courier New;fontSize=14;strokeColor=#000000;endArrow=block;endFill=1;strokeWidth=2;" edge="1" parent="1" source="18" target="19">
                    <mxGeometry relative="1" as="geometry"/>
                </mxCell>
                <mxCell id="18" value="&lt;font color=&quot;#000000&quot;&gt;&lt;span style=&quot;font-size: 14px&quot;&gt;Open_Refine_Inspections.csv&lt;/span&gt;&lt;/font&gt;" style="rounded=1;whiteSpace=wrap;html=1;strokeColor=#36393d;arcSize=38;fillColor=#FFFFCC;strokeWidth=1;" vertex="1" parent="1">
                    <mxGeometry x="40" y="-474" width="223.75" height="40" as="geometry"/>
                </mxCell>
                <mxCell id="34" style="edgeStyle=none;html=1;fontFamily=Courier New;fontSize=14;endArrow=block;endFill=1;strokeColor=#000000;strokeWidth=2;" edge="1" parent="1" source="19" target="22">
                    <mxGeometry relative="1" as="geometry"/>
                </mxCell>
                <mxCell id="19" value="&lt;font color=&quot;#000000&quot; face=&quot;Courier New&quot; style=&quot;font-size: 14px&quot;&gt;CleanViolations&lt;/font&gt;" style="rounded=0;whiteSpace=wrap;html=1;strokeColor=#36393d;fillColor=#ccffcc;strokeWidth=1;" vertex="1" parent="1">
                    <mxGeometry x="77.80999999999995" y="-384" width="148.12" height="40" as="geometry"/>
                </mxCell>
                <mxCell id="36" style="edgeStyle=none;html=1;entryX=0.5;entryY=0;entryDx=0;entryDy=0;fontFamily=Courier New;fontSize=14;endArrow=block;endFill=1;strokeColor=#000000;strokeWidth=2;" edge="1" parent="1" source="20" target="25">
                    <mxGeometry relative="1" as="geometry"/>
                </mxCell>
                <mxCell id="20" value="&lt;font color=&quot;#000000&quot; face=&quot;Courier New&quot; style=&quot;font-size: 14px&quot;&gt;CreateMappings&lt;/font&gt;" style="rounded=0;whiteSpace=wrap;html=1;strokeColor=#36393d;fillColor=#ccffcc;strokeWidth=1;" vertex="1" parent="1">
                    <mxGeometry x="80.92999999999995" y="-204" width="148.12" height="40" as="geometry"/>
                </mxCell>
                <mxCell id="38" style="edgeStyle=none;html=1;fontFamily=Courier New;fontSize=14;endArrow=block;endFill=1;strokeColor=#000000;strokeWidth=2;" edge="1" parent="1" source="21" target="27">
                    <mxGeometry relative="1" as="geometry"/>
                </mxCell>
                <mxCell id="21" value="&lt;font color=&quot;#000000&quot; face=&quot;Courier New&quot; style=&quot;font-size: 14px&quot;&gt;RenameColumns&lt;/font&gt;" style="rounded=0;whiteSpace=wrap;html=1;strokeColor=#36393d;fillColor=#ccffcc;strokeWidth=1;" vertex="1" parent="1">
                    <mxGeometry x="80.93000000000006" y="-24" width="148.12" height="40" as="geometry"/>
                </mxCell>
                <mxCell id="35" style="edgeStyle=none;html=1;fontFamily=Courier New;fontSize=14;endArrow=block;endFill=1;strokeColor=#000000;strokeWidth=2;" edge="1" parent="1" source="22" target="20">
                    <mxGeometry relative="1" as="geometry"/>
                </mxCell>
                <mxCell id="22" value="&lt;font color=&quot;#000000&quot;&gt;&lt;span style=&quot;font-size: 14px&quot;&gt;Clean_Violations&lt;/span&gt;&lt;/font&gt;" style="rounded=1;whiteSpace=wrap;html=1;strokeColor=#36393d;arcSize=38;fillColor=#FFFFCC;strokeWidth=1;" vertex="1" parent="1">
                    <mxGeometry x="78.89999999999998" y="-292" width="145.93" height="40" as="geometry"/>
                </mxCell>
                <mxCell id="37" style="edgeStyle=none;html=1;entryX=0.5;entryY=0;entryDx=0;entryDy=0;fontFamily=Courier New;fontSize=14;endArrow=block;endFill=1;strokeColor=#000000;strokeWidth=2;" edge="1" parent="1" source="25" target="21">
                    <mxGeometry relative="1" as="geometry"/>
                </mxCell>
                <mxCell id="25" value="&lt;font color=&quot;#000000&quot;&gt;&lt;span style=&quot;font-size: 14px&quot;&gt;Mappings_Inspections&lt;/span&gt;&lt;/font&gt;" style="rounded=1;whiteSpace=wrap;html=1;strokeColor=#36393d;arcSize=38;fillColor=#FFFFCC;strokeWidth=1;" vertex="1" parent="1">
                    <mxGeometry x="65.38" y="-114" width="179.22" height="40" as="geometry"/>
                </mxCell>
                <mxCell id="39" style="edgeStyle=none;html=1;entryX=0.5;entryY=0;entryDx=0;entryDy=0;fontFamily=Courier New;fontSize=14;endArrow=block;endFill=1;strokeColor=#000000;strokeWidth=2;" edge="1" parent="1" source="27" target="29">
                    <mxGeometry relative="1" as="geometry"/>
                </mxCell>
                <mxCell id="40" style="edgeStyle=none;html=1;entryX=0.5;entryY=0;entryDx=0;entryDy=0;fontFamily=Courier New;fontSize=14;endArrow=block;endFill=1;strokeColor=#000000;strokeWidth=2;" edge="1" parent="1" source="27" target="28">
                    <mxGeometry relative="1" as="geometry"/>
                </mxCell>
                <mxCell id="41" style="edgeStyle=none;html=1;entryX=0.5;entryY=0;entryDx=0;entryDy=0;fontFamily=Courier New;fontSize=14;endArrow=block;endFill=1;strokeColor=#000000;strokeWidth=2;" edge="1" parent="1" source="27" target="30">
                    <mxGeometry relative="1" as="geometry"/>
                </mxCell>
                <mxCell id="27" value="&lt;font color=&quot;#000000&quot;&gt;&lt;span style=&quot;font-size: 14px&quot;&gt;Clean_Inspections_Renamed&lt;/span&gt;&lt;/font&gt;" style="rounded=1;whiteSpace=wrap;html=1;strokeColor=#36393d;arcSize=38;fillColor=#FFFFCC;strokeWidth=1;" vertex="1" parent="1">
                    <mxGeometry x="46.120000000000005" y="66" width="217.74" height="40" as="geometry"/>
                </mxCell>
                <mxCell id="63" style="edgeStyle=none;html=1;entryX=0.5;entryY=0;entryDx=0;entryDy=0;fontFamily=Courier New;fontSize=14;endArrow=block;endFill=1;strokeColor=#000000;strokeWidth=2;" edge="1" parent="1" source="28" target="60">
                    <mxGeometry relative="1" as="geometry"/>
                </mxCell>
                <mxCell id="28" value="&lt;font color=&quot;#000000&quot; face=&quot;Courier New&quot; style=&quot;font-size: 14px&quot;&gt;SaveInspections&lt;/font&gt;" style="rounded=0;whiteSpace=wrap;html=1;strokeColor=#36393d;fillColor=#ccffcc;strokeWidth=1;" vertex="1" parent="1">
                    <mxGeometry x="-159.80999999999983" y="156" width="148.12" height="40" as="geometry"/>
                </mxCell>
                <mxCell id="64" style="edgeStyle=none;html=1;fontFamily=Courier New;fontSize=14;endArrow=block;endFill=1;strokeColor=#000000;strokeWidth=2;" edge="1" parent="1" source="29" target="61">
                    <mxGeometry relative="1" as="geometry"/>
                </mxCell>
                <mxCell id="29" value="&lt;font color=&quot;#000000&quot; face=&quot;Courier New&quot; style=&quot;font-size: 14px&quot;&gt;SaveEstablishments&lt;/font&gt;" style="rounded=0;whiteSpace=wrap;html=1;strokeColor=#36393d;fillColor=#ccffcc;strokeWidth=1;" vertex="1" parent="1">
                    <mxGeometry x="11.32000000000005" y="156" width="177.38" height="40" as="geometry"/>
                </mxCell>
                <mxCell id="65" style="edgeStyle=none;html=1;entryX=0.5;entryY=0;entryDx=0;entryDy=0;fontFamily=Courier New;fontSize=14;endArrow=block;endFill=1;strokeColor=#000000;strokeWidth=2;" edge="1" parent="1" source="30" target="62">
                    <mxGeometry relative="1" as="geometry"/>
                </mxCell>
                <mxCell id="30" value="&lt;font color=&quot;#000000&quot; face=&quot;Courier New&quot; style=&quot;font-size: 14px&quot;&gt;SaveEstablishmentInspections&lt;/font&gt;" style="rounded=0;whiteSpace=wrap;html=1;strokeColor=#36393d;fillColor=#ccffcc;strokeWidth=1;" vertex="1" parent="1">
                    <mxGeometry x="209.80000000000007" y="156" width="260" height="40" as="geometry"/>
                </mxCell>
                <mxCell id="51" value="" style="rounded=0;whiteSpace=wrap;html=1;fillColor=#FFFFFF;strokeColor=#000000;" vertex="1" parent="1">
                    <mxGeometry x="-980" y="151" width="580" height="530" as="geometry"/>
                </mxCell>
                <mxCell id="56" style="edgeStyle=none;html=1;fontFamily=Courier New;fontSize=14;endArrow=block;endFill=1;strokeColor=#000000;strokeWidth=2;" edge="1" parent="1" source="49" target="52">
                    <mxGeometry relative="1" as="geometry"/>
                </mxCell>
                <mxCell id="49" value="&lt;font color=&quot;#000000&quot; face=&quot;Courier New&quot; style=&quot;font-size: 14px&quot;&gt;openrefine_cleaning&lt;/font&gt;" style="rounded=0;whiteSpace=wrap;html=1;strokeColor=#36393d;fillColor=#ccffcc;strokeWidth=1;" vertex="1" parent="1">
                    <mxGeometry x="-781.68" y="261" width="181.25" height="40" as="geometry"/>
                </mxCell>
                <mxCell id="57" style="edgeStyle=none;html=1;entryX=0.5;entryY=0;entryDx=0;entryDy=0;fontFamily=Courier New;fontSize=14;endArrow=block;endFill=1;strokeColor=#000000;strokeWidth=2;" edge="1" parent="1" source="52" target="53">
                    <mxGeometry relative="1" as="geometry"/>
                </mxCell>
                <mxCell id="52" value="&lt;font color=&quot;#000000&quot; face=&quot;Courier New&quot; style=&quot;font-size: 14px&quot;&gt;python_data_cleaning&lt;/font&gt;" style="rounded=0;whiteSpace=wrap;html=1;strokeColor=#36393d;fillColor=#ccffcc;strokeWidth=1;" vertex="1" parent="1">
                    <mxGeometry x="-784.49" y="351" width="186.87" height="40" as="geometry"/>
                </mxCell>
                <mxCell id="58" style="edgeStyle=none;html=1;entryX=0.5;entryY=0;entryDx=0;entryDy=0;fontFamily=Courier New;fontSize=14;endArrow=block;endFill=1;strokeColor=#000000;strokeWidth=2;" edge="1" parent="1" source="53" target="54">
                    <mxGeometry relative="1" as="geometry"/>
                </mxCell>
                <mxCell id="53" value="&lt;font color=&quot;#000000&quot; face=&quot;Courier New&quot;&gt;&lt;span style=&quot;font-size: 14px&quot;&gt;data_loading&lt;/span&gt;&lt;/font&gt;" style="rounded=0;whiteSpace=wrap;html=1;strokeColor=#36393d;fillColor=#ccffcc;strokeWidth=1;" vertex="1" parent="1">
                    <mxGeometry x="-757.5600000000001" y="441" width="132.49" height="40" as="geometry"/>
                </mxCell>
                <mxCell id="85" style="edgeStyle=none;html=1;entryX=0.5;entryY=0;entryDx=0;entryDy=0;fontFamily=Courier New;fontSize=14;endArrow=block;endFill=1;strokeColor=#000000;strokeWidth=2;" edge="1" parent="1" source="54" target="84">
                    <mxGeometry relative="1" as="geometry"/>
                </mxCell>
                <mxCell id="86" style="edgeStyle=none;html=1;entryX=0.5;entryY=0;entryDx=0;entryDy=0;fontFamily=Courier New;fontSize=14;endArrow=block;endFill=1;strokeColor=#000000;strokeWidth=2;" edge="1" parent="1" source="54" target="82">
                    <mxGeometry relative="1" as="geometry"/>
                </mxCell>
                <mxCell id="87" style="edgeStyle=none;html=1;entryX=0.5;entryY=0;entryDx=0;entryDy=0;fontFamily=Courier New;fontSize=14;endArrow=block;endFill=1;strokeColor=#000000;strokeWidth=2;" edge="1" parent="1" source="54" target="83">
                    <mxGeometry relative="1" as="geometry"/>
                </mxCell>
                <mxCell id="54" value="&lt;font color=&quot;#000000&quot; face=&quot;Courier New&quot;&gt;&lt;span style=&quot;font-size: 14px&quot;&gt;IC_violation_checks&lt;/span&gt;&lt;/font&gt;" style="rounded=0;whiteSpace=wrap;html=1;strokeColor=#36393d;fillColor=#ccffcc;strokeWidth=1;" vertex="1" parent="1">
                    <mxGeometry x="-784.49" y="531" width="186.87" height="40" as="geometry"/>
                </mxCell>
                <mxCell id="55" value="&lt;font color=&quot;#000000&quot; face=&quot;Courier New&quot;&gt;&lt;span style=&quot;font-size: 20px&quot;&gt;overall_workflow&lt;/span&gt;&lt;/font&gt;" style="text;html=1;strokeColor=none;fillColor=none;align=center;verticalAlign=middle;whiteSpace=wrap;rounded=0;" vertex="1" parent="1">
                    <mxGeometry x="-817.88" y="119" width="253.13" height="30" as="geometry"/>
                </mxCell>
                <mxCell id="59" value="" style="rounded=0;whiteSpace=wrap;html=1;fillColor=#FFFFFF;strokeColor=#000000;" vertex="1" parent="1">
                    <mxGeometry x="-160" y="416" width="590" height="280" as="geometry"/>
                </mxCell>
                <mxCell id="60" value="&lt;font color=&quot;#000000&quot;&gt;&lt;span style=&quot;font-size: 14px&quot;&gt;Inspections.csv&lt;/span&gt;&lt;/font&gt;" style="rounded=1;whiteSpace=wrap;html=1;strokeColor=#36393d;arcSize=38;fillColor=#FFFFCC;strokeWidth=1;" vertex="1" parent="1">
                    <mxGeometry x="-155.78999999999996" y="246" width="139.81" height="40" as="geometry"/>
                </mxCell>
                <mxCell id="61" value="&lt;font color=&quot;#000000&quot;&gt;&lt;span style=&quot;font-size: 14px&quot;&gt;Establishments.csv&lt;/span&gt;&lt;/font&gt;" style="rounded=1;whiteSpace=wrap;html=1;strokeColor=#36393d;arcSize=38;fillColor=#FFFFCC;strokeWidth=1;" vertex="1" parent="1">
                    <mxGeometry x="24.920000000000016" y="246" width="149.89" height="40" as="geometry"/>
                </mxCell>
                <mxCell id="62" value="&lt;font color=&quot;#000000&quot;&gt;&lt;span style=&quot;font-size: 14px&quot;&gt;EstablishmentInspections.csv&lt;/span&gt;&lt;/font&gt;" style="rounded=1;whiteSpace=wrap;html=1;strokeColor=#36393d;arcSize=38;fillColor=#FFFFCC;strokeWidth=1;" vertex="1" parent="1">
                    <mxGeometry x="231.53" y="246" width="216.25" height="40" as="geometry"/>
                </mxCell>
                <mxCell id="75" style="edgeStyle=none;html=1;entryX=0.5;entryY=0;entryDx=0;entryDy=0;fontFamily=Courier New;fontSize=14;endArrow=block;endFill=1;strokeColor=#000000;strokeWidth=2;" edge="1" parent="1" source="66" target="70">
                    <mxGeometry relative="1" as="geometry"/>
                </mxCell>
                <mxCell id="66" value="&lt;font color=&quot;#000000&quot;&gt;&lt;span style=&quot;font-size: 14px&quot;&gt;Inspections.csv&lt;/span&gt;&lt;/font&gt;" style="rounded=1;whiteSpace=wrap;html=1;strokeColor=#36393d;arcSize=38;fillColor=#FFFFCC;strokeWidth=1;" vertex="1" parent="1">
                    <mxGeometry x="-135.80999999999995" y="446" width="139.81" height="40" as="geometry"/>
                </mxCell>
                <mxCell id="74" style="edgeStyle=none;html=1;entryX=0.5;entryY=0;entryDx=0;entryDy=0;fontFamily=Courier New;fontSize=14;endArrow=block;endFill=1;strokeColor=#000000;strokeWidth=2;" edge="1" parent="1" source="67" target="70">
                    <mxGeometry relative="1" as="geometry"/>
                </mxCell>
                <mxCell id="67" value="&lt;font color=&quot;#000000&quot;&gt;&lt;span style=&quot;font-size: 14px&quot;&gt;Establishments.csv&lt;/span&gt;&lt;/font&gt;" style="rounded=1;whiteSpace=wrap;html=1;strokeColor=#36393d;arcSize=38;fillColor=#FFFFCC;strokeWidth=1;" vertex="1" parent="1">
                    <mxGeometry x="20.900000000000034" y="446" width="149.89" height="40" as="geometry"/>
                </mxCell>
                <mxCell id="73" style="edgeStyle=none;html=1;entryX=0.5;entryY=0;entryDx=0;entryDy=0;fontFamily=Courier New;fontSize=14;endArrow=block;endFill=1;strokeColor=#000000;strokeWidth=2;" edge="1" parent="1" source="68" target="70">
                    <mxGeometry relative="1" as="geometry"/>
                </mxCell>
                <mxCell id="68" value="&lt;font color=&quot;#000000&quot;&gt;&lt;span style=&quot;font-size: 14px&quot;&gt;EstablishmentInspections.csv&lt;/span&gt;&lt;/font&gt;" style="rounded=1;whiteSpace=wrap;html=1;strokeColor=#36393d;arcSize=38;fillColor=#FFFFCC;strokeWidth=1;" vertex="1" parent="1">
                    <mxGeometry x="194.51" y="446" width="216.25" height="40" as="geometry"/>
                </mxCell>
                <mxCell id="69" value="&lt;font color=&quot;#000000&quot; face=&quot;Courier New&quot;&gt;&lt;span style=&quot;font-size: 20px&quot;&gt;data_loading&lt;/span&gt;&lt;/font&gt;" style="text;html=1;strokeColor=none;fillColor=none;align=center;verticalAlign=middle;whiteSpace=wrap;rounded=0;" vertex="1" parent="1">
                    <mxGeometry x="60" y="376" width="150" height="30" as="geometry"/>
                </mxCell>
                <mxCell id="79" style="edgeStyle=none;html=1;entryX=0.5;entryY=0;entryDx=0;entryDy=0;fontFamily=Courier New;fontSize=14;endArrow=block;endFill=1;strokeColor=#000000;strokeWidth=2;" edge="1" parent="1" source="70" target="78">
                    <mxGeometry relative="1" as="geometry"/>
                </mxCell>
                <mxCell id="80" style="edgeStyle=none;html=1;entryX=0.5;entryY=0;entryDx=0;entryDy=0;fontFamily=Courier New;fontSize=14;endArrow=block;endFill=1;strokeColor=#000000;strokeWidth=2;" edge="1" parent="1" source="70" target="76">
                    <mxGeometry relative="1" as="geometry"/>
                </mxCell>
                <mxCell id="81" style="edgeStyle=none;html=1;entryX=0.5;entryY=0;entryDx=0;entryDy=0;fontFamily=Courier New;fontSize=14;endArrow=block;endFill=1;strokeColor=#000000;strokeWidth=2;" edge="1" parent="1" source="70" target="77">
                    <mxGeometry relative="1" as="geometry"/>
                </mxCell>
                <mxCell id="70" value="&lt;font color=&quot;#000000&quot; face=&quot;Courier New&quot; style=&quot;font-size: 14px&quot;&gt;LoadCsvToSql&lt;/font&gt;" style="rounded=0;whiteSpace=wrap;html=1;strokeColor=#36393d;fillColor=#ccffcc;strokeWidth=1;" vertex="1" parent="1">
                    <mxGeometry x="50.00000000000017" y="536" width="148.12" height="40" as="geometry"/>
                </mxCell>
                <mxCell id="76" value="&lt;font color=&quot;#000000&quot;&gt;&lt;span style=&quot;font-size: 14px&quot;&gt;EstablishmentsTable&lt;/span&gt;&lt;/font&gt;" style="rounded=1;whiteSpace=wrap;html=1;strokeColor=#36393d;arcSize=38;fillColor=#FFFFCC;strokeWidth=1;" vertex="1" parent="1">
                    <mxGeometry x="22.439999999999998" y="626" width="149.89" height="40" as="geometry"/>
                </mxCell>
                <mxCell id="77" value="&lt;font color=&quot;#000000&quot;&gt;&lt;span style=&quot;font-size: 14px&quot;&gt;EstablishmentInspectionsTable&lt;/span&gt;&lt;/font&gt;" style="rounded=1;whiteSpace=wrap;html=1;strokeColor=#36393d;arcSize=38;fillColor=#FFFFCC;strokeWidth=1;" vertex="1" parent="1">
                    <mxGeometry x="192.03" y="626" width="216.25" height="40" as="geometry"/>
                </mxCell>
                <mxCell id="78" value="&lt;font color=&quot;#000000&quot;&gt;&lt;span style=&quot;font-size: 14px&quot;&gt;InspectionsTable&lt;/span&gt;&lt;/font&gt;" style="rounded=1;whiteSpace=wrap;html=1;strokeColor=#36393d;arcSize=38;fillColor=#FFFFCC;strokeWidth=1;" vertex="1" parent="1">
                    <mxGeometry x="-138.28999999999996" y="626" width="139.81" height="40" as="geometry"/>
                </mxCell>
                <mxCell id="82" value="&lt;font color=&quot;#000000&quot;&gt;&lt;span style=&quot;font-size: 14px&quot;&gt;EstablishmentsTable&lt;/span&gt;&lt;/font&gt;" style="rounded=1;whiteSpace=wrap;html=1;strokeColor=#36393d;arcSize=38;fillColor=#FFFFCC;strokeWidth=1;" vertex="1" parent="1">
                    <mxGeometry x="-804.55" y="621" width="149.89" height="40" as="geometry"/>
                </mxCell>
                <mxCell id="83" value="&lt;font color=&quot;#000000&quot;&gt;&lt;span style=&quot;font-size: 14px&quot;&gt;EstablishmentInspectionsTable&lt;/span&gt;&lt;/font&gt;" style="rounded=1;whiteSpace=wrap;html=1;strokeColor=#36393d;arcSize=38;fillColor=#FFFFCC;strokeWidth=1;" vertex="1" parent="1">
                    <mxGeometry x="-634.96" y="621" width="216.25" height="40" as="geometry"/>
                </mxCell>
                <mxCell id="84" value="&lt;font color=&quot;#000000&quot;&gt;&lt;span style=&quot;font-size: 14px&quot;&gt;InspectionsTable&lt;/span&gt;&lt;/font&gt;" style="rounded=1;whiteSpace=wrap;html=1;strokeColor=#36393d;arcSize=38;fillColor=#FFFFCC;strokeWidth=1;" vertex="1" parent="1">
                    <mxGeometry x="-965.28" y="621" width="139.81" height="40" as="geometry"/>
                </mxCell>
                <mxCell id="90" style="edgeStyle=none;html=1;entryX=0.5;entryY=0;entryDx=0;entryDy=0;fontFamily=Courier New;fontSize=14;endArrow=block;endFill=1;strokeColor=#000000;strokeWidth=2;" edge="1" parent="1" source="88" target="49">
                    <mxGeometry relative="1" as="geometry"/>
                </mxCell>
                <mxCell id="88" value="&lt;font color=&quot;#000000&quot; style=&quot;font-size: 14px&quot;&gt;Food_Inspections.csv&lt;/font&gt;" style="rounded=1;whiteSpace=wrap;html=1;strokeColor=#36393d;arcSize=38;fillColor=#FFFFCC;strokeWidth=1;" vertex="1" parent="1">
                    <mxGeometry x="-771.31" y="165" width="160" height="40" as="geometry"/>
                </mxCell>
                <mxCell id="91" value="&lt;font color=&quot;#000000&quot; face=&quot;Courier New&quot;&gt;&lt;span style=&quot;font-size: 20px&quot;&gt;IC_violation_checks&lt;/span&gt;&lt;/font&gt;" style="text;html=1;strokeColor=none;fillColor=none;align=center;verticalAlign=middle;whiteSpace=wrap;rounded=0;" vertex="1" parent="1">
                    <mxGeometry x="-391.39" y="790" width="284.99" height="30" as="geometry"/>
                </mxCell>
                <mxCell id="92" value="" style="rounded=0;whiteSpace=wrap;html=1;fillColor=#FFFFFF;strokeColor=#000000;" vertex="1" parent="1">
                    <mxGeometry x="-908.55" y="822" width="1319.31" height="200" as="geometry"/>
                </mxCell>
                <mxCell id="100" style="edgeStyle=none;html=1;entryX=0.5;entryY=0;entryDx=0;entryDy=0;fontFamily=Courier New;fontSize=14;endArrow=block;endFill=1;strokeColor=#000000;strokeWidth=2;" edge="1" parent="1" source="94" target="97">
                    <mxGeometry relative="1" as="geometry"/>
                </mxCell>
                <mxCell id="106" style="edgeStyle=none;html=1;entryX=0.5;entryY=0;entryDx=0;entryDy=0;fontFamily=Courier New;fontSize=14;endArrow=block;endFill=1;strokeColor=#000000;strokeWidth=2;" edge="1" parent="1" source="94" target="101">
                    <mxGeometry relative="1" as="geometry"/>
                </mxCell>
                <mxCell id="112" style="edgeStyle=none;html=1;entryX=0.5;entryY=0;entryDx=0;entryDy=0;fontFamily=Courier New;fontSize=14;endArrow=block;endFill=1;strokeColor=#000000;strokeWidth=2;" edge="1" parent="1" source="94" target="110">
                    <mxGeometry relative="1" as="geometry"/>
                </mxCell>
                <mxCell id="118" style="edgeStyle=none;html=1;entryX=0.5;entryY=0;entryDx=0;entryDy=0;fontFamily=Courier New;fontSize=14;endArrow=block;endFill=1;strokeColor=#000000;strokeWidth=2;" edge="1" parent="1" source="94" target="117">
                    <mxGeometry relative="1" as="geometry"/>
                </mxCell>
                <mxCell id="94" value="&lt;font color=&quot;#000000&quot;&gt;&lt;span style=&quot;font-size: 14px&quot;&gt;EstablishmentsTable&lt;/span&gt;&lt;/font&gt;" style="rounded=1;whiteSpace=wrap;html=1;strokeColor=#36393d;arcSize=38;fillColor=#FFFFCC;strokeWidth=1;" vertex="1" parent="1">
                    <mxGeometry x="-344.40999999999997" y="836" width="149.89" height="40" as="geometry"/>
                </mxCell>
                <mxCell id="99" style="edgeStyle=none;html=1;entryX=0.5;entryY=0;entryDx=0;entryDy=0;fontFamily=Courier New;fontSize=14;endArrow=block;endFill=1;strokeColor=#000000;strokeWidth=2;" edge="1" parent="1" source="95" target="97">
                    <mxGeometry relative="1" as="geometry"/>
                </mxCell>
                <mxCell id="105" style="edgeStyle=none;html=1;entryX=0.5;entryY=0;entryDx=0;entryDy=0;fontFamily=Courier New;fontSize=14;endArrow=block;endFill=1;strokeColor=#000000;strokeWidth=2;" edge="1" parent="1" source="95" target="101">
                    <mxGeometry relative="1" as="geometry"/>
                </mxCell>
                <mxCell id="109" style="edgeStyle=none;html=1;entryX=0.5;entryY=0;entryDx=0;entryDy=0;fontFamily=Courier New;fontSize=14;endArrow=block;endFill=1;strokeColor=#000000;strokeWidth=2;" edge="1" parent="1" source="95" target="107">
                    <mxGeometry relative="1" as="geometry"/>
                </mxCell>
                <mxCell id="113" style="edgeStyle=none;html=1;entryX=0.5;entryY=0;entryDx=0;entryDy=0;fontFamily=Courier New;fontSize=14;endArrow=block;endFill=1;strokeColor=#000000;strokeWidth=2;" edge="1" parent="1" source="95" target="110">
                    <mxGeometry relative="1" as="geometry"/>
                </mxCell>
                <mxCell id="95" value="&lt;font color=&quot;#000000&quot;&gt;&lt;span style=&quot;font-size: 14px&quot;&gt;EstablishmentInspectionsTable&lt;/span&gt;&lt;/font&gt;" style="rounded=1;whiteSpace=wrap;html=1;strokeColor=#36393d;arcSize=38;fillColor=#FFFFCC;strokeWidth=1;" vertex="1" parent="1">
                    <mxGeometry x="-174.82000000000008" y="836" width="216.25" height="40" as="geometry"/>
                </mxCell>
                <mxCell id="98" style="edgeStyle=none;html=1;entryX=0.5;entryY=0;entryDx=0;entryDy=0;fontFamily=Courier New;fontSize=14;endArrow=block;endFill=1;strokeColor=#000000;strokeWidth=2;" edge="1" parent="1" source="96" target="97">
                    <mxGeometry relative="1" as="geometry"/>
                </mxCell>
                <mxCell id="108" style="edgeStyle=none;html=1;entryX=0.5;entryY=0;entryDx=0;entryDy=0;fontFamily=Courier New;fontSize=14;endArrow=block;endFill=1;strokeColor=#000000;strokeWidth=2;" edge="1" parent="1" source="96" target="107">
                    <mxGeometry relative="1" as="geometry"/>
                </mxCell>
                <mxCell id="116" style="edgeStyle=none;html=1;entryX=0.5;entryY=0;entryDx=0;entryDy=0;fontFamily=Courier New;fontSize=14;endArrow=block;endFill=1;strokeColor=#000000;strokeWidth=2;" edge="1" parent="1" source="96" target="114">
                    <mxGeometry relative="1" as="geometry"/>
                </mxCell>
                <mxCell id="96" value="&lt;font color=&quot;#000000&quot;&gt;&lt;span style=&quot;font-size: 14px&quot;&gt;InspectionsTable&lt;/span&gt;&lt;/font&gt;" style="rounded=1;whiteSpace=wrap;html=1;strokeColor=#36393d;arcSize=38;fillColor=#FFFFCC;strokeWidth=1;" vertex="1" parent="1">
                    <mxGeometry x="-505.14" y="836" width="139.81" height="40" as="geometry"/>
                </mxCell>
                <mxCell id="97" value="&lt;font color=&quot;#000000&quot; face=&quot;Courier New&quot;&gt;&lt;span style=&quot;font-size: 14px&quot;&gt;NullCheck&lt;/span&gt;&lt;/font&gt;" style="rounded=0;whiteSpace=wrap;html=1;strokeColor=#36393d;fillColor=#ccffcc;strokeWidth=1;" vertex="1" parent="1">
                    <mxGeometry x="-679.7599999999998" y="966" width="148.12" height="40" as="geometry"/>
                </mxCell>
                <mxCell id="101" value="&lt;font color=&quot;#000000&quot; face=&quot;Courier New&quot;&gt;&lt;span style=&quot;font-size: 14px&quot;&gt;EstablishIdInEstablishments&lt;/span&gt;&lt;/font&gt;" style="rounded=0;whiteSpace=wrap;html=1;strokeColor=#36393d;fillColor=#ccffcc;strokeWidth=1;" vertex="1" parent="1">
                    <mxGeometry x="-49.24" y="966" width="260" height="40" as="geometry"/>
                </mxCell>
                <mxCell id="107" value="&lt;font color=&quot;#000000&quot; face=&quot;Courier New&quot;&gt;&lt;span style=&quot;font-size: 14px&quot;&gt;InspecIdInInspections&lt;/span&gt;&lt;/font&gt;" style="rounded=0;whiteSpace=wrap;html=1;strokeColor=#36393d;fillColor=#ccffcc;strokeWidth=1;" vertex="1" parent="1">
                    <mxGeometry x="-499.27" y="966" width="200" height="40" as="geometry"/>
                </mxCell>
                <mxCell id="110" value="&lt;font color=&quot;#000000&quot; face=&quot;Courier New&quot;&gt;&lt;span style=&quot;font-size: 14px&quot;&gt;DuplicateKeys&lt;/span&gt;&lt;/font&gt;" style="rounded=0;whiteSpace=wrap;html=1;strokeColor=#36393d;fillColor=#ccffcc;strokeWidth=1;" vertex="1" parent="1">
                    <mxGeometry x="241.7900000000002" y="966" width="148.12" height="40" as="geometry"/>
                </mxCell>
                <mxCell id="114" value="&lt;font color=&quot;#000000&quot; face=&quot;Courier New&quot;&gt;&lt;span style=&quot;font-size: 14px&quot;&gt;NumericConstraint&lt;/span&gt;&lt;/font&gt;" style="rounded=0;whiteSpace=wrap;html=1;strokeColor=#36393d;fillColor=#ccffcc;strokeWidth=1;" vertex="1" parent="1">
                    <mxGeometry x="-877.3599999999999" y="966" width="166.41" height="40" as="geometry"/>
                </mxCell>
                <mxCell id="117" value="&lt;font color=&quot;#000000&quot; face=&quot;Courier New&quot;&gt;&lt;span style=&quot;font-size: 14px&quot;&gt;FunctionalDependency&lt;/span&gt;&lt;/font&gt;" style="rounded=0;whiteSpace=wrap;html=1;strokeColor=#36393d;fillColor=#ccffcc;strokeWidth=1;" vertex="1" parent="1">
                    <mxGeometry x="-274.24" y="966" width="200" height="40" as="geometry"/>
                </mxCell>
            </root>
        </mxGraphModel>
    </diagram>
</mxfile>